<svg width="300" viewBox="0 0 952 726" fill="none" xmlns="http://www.w3.org/2000/svg">
<g id="polaroid">
<g id="Image">
<g id="background">
<path id="Vector" d="M762.635 656.143H247.853C111.419 625.929 -7.11576e-06 521.862 -7.11576e-06 366.239C-0.0198351 342.698 2.52542 319.225 7.59069 296.236L422.528 229.398L742.626 177.841C765.621 192.885 787.504 209.565 808.104 227.751L501.709 344.628L357.168 399.767L519.49 359.422L856.396 275.686C876.863 298.561 895.464 323.039 912.021 348.884L810.138 425.059L925.248 370.575C925.735 371.415 926.22 372.256 926.703 373.099C998.926 499.128 907.891 656.143 762.635 656.143Z" fill="#F2F2F2"/>
<path id="Vector_2" d="M680.372 142.468C602.451 158.562 506.65 178.903 408.15 200.048C265.733 230.629 117.68 262.906 9.8927 286.502L9.96425 286.223C14.5836 268.56 24.1273 252.574 37.4833 240.127C119.213 163.113 221.845 111.919 332.531 92.9548H332.541C364.605 87.4881 397.075 84.7464 429.602 84.7588C516.497 84.6362 602.271 104.375 680.372 142.468Z" fill="#F2F2F2"/>
</g>
<path id="frame" d="M97.213 0V725.342H807.785V0H97.213ZM742.143 512.006H164.496V62.3597H742.143V512.006Z" fill="#3F3D56"/>
<g id="person">
<path id="Vector_3" d="M490.035 189.092C472.517 159.493 437.86 158.114 437.86 158.114C437.86 158.114 404.089 153.795 382.425 198.875C362.232 240.893 334.364 281.463 377.938 291.299L385.809 266.801L390.683 293.123C396.888 293.569 403.111 293.675 409.327 293.441C455.992 291.935 500.433 293.882 499.002 277.137C497.1 254.876 506.89 217.573 490.035 189.092Z" fill="#2F2E41"/>
<path id="Vector_4" d="M370.447 470.159L311.369 511.185C311.369 511.185 276.907 547.288 301.523 547.288C326.139 547.288 335.985 516.109 335.985 516.109L411.473 483.288L370.447 470.159Z" fill="#FFB8B8"/>
<path id="Vector_5" d="M394.242 310.157C394.242 310.157 342.549 470.159 358.96 478.365C375.37 486.57 411.473 491.493 411.473 491.493L394.242 310.157Z" fill="#D0CDE1"/>
<path id="Vector_6" opacity="0.1" d="M394.242 310.157C394.242 310.157 342.549 470.159 358.96 478.365C375.37 486.57 411.473 491.493 411.473 491.493L394.242 310.157Z" fill="black"/>
<path id="Vector_7" d="M556.755 512.006H440.388L523.064 470.159C524.887 471.341 526.636 472.635 528.299 474.032C540.559 484.352 550.292 497.342 556.755 512.006Z" fill="#2F2E41"/>
<path id="Vector_8" d="M427.063 269.131C450.627 269.131 469.73 250.029 469.73 226.464C469.73 202.9 450.627 183.797 427.063 183.797C403.499 183.797 384.396 202.9 384.396 226.464C384.396 250.029 403.499 269.131 427.063 269.131Z" fill="#FFB8B8"/>
<path id="Vector_9" d="M426.242 261.747C426.242 261.747 436.089 292.926 426.242 304.414C416.396 315.901 480.397 288.003 480.397 288.003C480.397 288.003 457.422 255.182 463.986 240.413L426.242 261.747Z" fill="#FFB8B8"/>
<path id="Vector_10" d="M520.767 404.206L517.32 426.672C517.32 426.672 519.06 431.775 521.177 439.209C523.934 448.908 527.331 462.578 528.299 474.032C529.3 485.651 527.79 495.005 520.602 495.595C510.297 496.449 504.931 502.701 499.581 512.006H380.868C381.179 506.886 381.557 501.569 382 496.104C382.246 492.822 382.52 489.496 382.82 486.127C383.149 482.254 394.777 409.507 386.037 393.851C367.99 361.523 390.96 342.978 390.96 342.978C390.96 342.978 394.242 318.363 394.242 310.157C394.242 303.724 419.449 296.291 430.345 293.369C431.051 293.189 431.674 293.008 432.249 292.877C434.136 292.385 435.268 292.106 435.268 292.106L443.884 288.578C443.884 288.578 468.089 283.901 469.73 280.619C470.321 279.437 471.978 278.469 473.931 277.632C477.394 276.155 481.808 275.105 482.859 274.054C484.358 272.33 485.714 270.486 486.912 268.541C489.899 264.881 494.165 262.682 498.99 261.484C516.615 257.037 541.936 265.849 541.936 265.849L533.074 323.696L520.767 404.206Z" fill="#D0CDE1"/>
<path id="Vector_11" d="M572.295 368.414L513.218 409.441C513.218 409.441 478.756 445.544 503.372 445.544C527.987 445.544 537.833 414.364 537.833 414.364L613.321 381.543L572.295 368.414Z" fill="#FFB8B8"/>
<path id="Vector_12" d="M530.449 269.131L541.936 265.849C541.936 265.849 658.45 313.439 655.168 354.466C651.886 395.492 656.809 395.492 637.117 397.133C617.424 398.774 559.988 379.081 561.629 375.799C563.27 372.517 574.757 356.107 574.757 356.107L530.449 321.645V269.131Z" fill="#D0CDE1"/>
<path id="Vector_13" d="M469.73 233.028C473.355 233.028 476.294 230.089 476.294 226.464C476.294 222.839 473.355 219.9 469.73 219.9C466.105 219.9 463.166 222.839 463.166 226.464C463.166 230.089 466.105 233.028 469.73 233.028Z" fill="#FFB8B8"/>
<path id="Vector_14" d="M470.803 186.239L436.563 168.304L415.081 171.637C407.472 172.818 400.392 176.26 394.763 181.515C389.134 186.77 385.215 193.596 383.514 201.107L379.497 218.848L403.849 217.912L410.653 202.038V217.65L421.889 217.218L428.411 191.946L432.487 218.848L472.433 218.033L470.803 186.239Z" fill="#2F2E41"/>
</g>
<g id="flower">
<path id="Vector_15" d="M664.703 516.24C664.369 515.695 656.497 502.55 653.768 475.256C651.264 450.214 652.874 408.005 674.764 349.127C716.235 237.586 665.207 147.588 664.686 146.692L667.203 145.231C667.335 145.458 680.502 168.404 688.281 204.942C698.558 253.383 694.816 303.751 677.492 350.141C636.093 461.492 666.871 514.204 667.186 514.724L664.703 516.24Z" fill="#3F3D56"/>
<path id="Vector_16" d="M648.487 140.142C658.932 140.142 667.399 131.675 667.399 121.23C667.399 110.785 658.932 102.317 648.487 102.317C638.042 102.317 629.574 110.785 629.574 121.23C629.574 131.675 638.042 140.142 648.487 140.142Z" fill="#FFC700"/>
<path id="Vector_17" d="M708.134 209.973C718.579 209.973 727.046 201.505 727.046 191.06C727.046 180.615 718.579 172.148 708.134 172.148C697.689 172.148 689.221 180.615 689.221 191.06C689.221 201.505 697.689 209.973 708.134 209.973Z" fill="#3F3D56"/>
<path id="Vector_18" d="M667.399 256.526C677.844 256.526 686.312 248.059 686.312 237.614C686.312 227.169 677.844 218.702 667.399 218.702C656.954 218.702 648.487 227.169 648.487 237.614C648.487 248.059 656.954 256.526 667.399 256.526Z" fill="#FFC700"/>
<path id="Vector_19" d="M716.863 295.806C727.308 295.806 735.775 287.339 735.775 276.894C735.775 266.449 727.308 257.981 716.863 257.981C706.418 257.981 697.95 266.449 697.95 276.894C697.95 287.339 706.418 295.806 716.863 295.806Z" fill="#FFC700"/>
<path id="Vector_20" d="M652.851 356.908C663.296 356.908 671.764 348.441 671.764 337.995C671.764 327.55 663.296 319.083 652.851 319.083C642.406 319.083 633.939 327.55 633.939 337.995C633.939 348.441 642.406 356.908 652.851 356.908Z" fill="#3F3D56"/>
<path id="Vector_21" d="M676.128 516.936C676.128 516.936 657.216 470.383 713.953 435.467L676.128 516.936Z" fill="#3F3D56"/>
<path id="Vector_22" d="M652.869 516.092C652.869 516.092 644.262 466.586 577.643 467.01L652.869 516.092Z" fill="#3F3D56"/>
</g>
</g>
</g>
<defs>
<clipPath id="clip0">
<rect width="952" height="725.342" fill="white"/>
</clipPath>
</defs>
</svg>
